<?xml version="1.0" encoding="UTF-8" standalone="no"?>
<!DOCTYPE svg PUBLIC "-//W3C//DTD SVG 1.1//EN" "http://www.w3.org/Graphics/SVG/1.1/DTD/svg11.dtd">
<svg width="100%" height="100%" viewBox="0 0 512 512" version="1.1" xmlns="http://www.w3.org/2000/svg" xmlns:xlink="http://www.w3.org/1999/xlink" xml:space="preserve" xmlns:serif="http://www.serif.com/" style="fill-rule:evenodd;clip-rule:evenodd;stroke-linejoin:round;stroke-miterlimit:2;">
    <g id="path2090" transform="matrix(1.70666,0,0,1.70666,-4.15194,-4.26599)">
        <path d="M152.543,2.551C229.912,31.582 276.868,124.37 236.649,199.527L138.491,100.884L175.955,63.266L152.52,39.934C139.599,52.602 119.043,55.301 105.185,49.715L30.577,124.387L72.831,166.5L100.989,138.444L199.115,236.943C151.098,263.316 84.534,254.998 35.411,203.96L11.624,227.676C18.749,237.559 24.722,246.508 32.136,254.019C31.5,254.791 29.455,256.476 29.415,256.528C28.163,256.316 26.691,255.832 25.38,255.832C12.722,255.832 2.498,266.86 2.498,279.519C2.498,292.178 12.824,302.5 25.482,302.5C38.14,302.5 48.967,292.075 48.967,279.417C48.967,277.942 48.64,276.594 48.372,275.195L52.038,271.607C108.517,309.718 170.408,314.464 237.01,274.599L264.517,302.201L302.155,265.053L274.476,237.078C353.918,117.317 248.002,-0.317 152.543,2.551Z" style="fill:rgb(255,0,0);fill-rule:nonzero;"/>
    </g>
</svg>
