<svg xmlns="http://www.w3.org/2000/svg" xmlns:xlink="http://www.w3.org/1999/xlink" width="512pt" height="512pt" version="1.1" viewBox="0 0 512 512">
    <path d="M255.14,442.23q-16.36-25.42-24.68-45.85-.06,64.39-21.52,111.22a273.07,273.07,0,0,0,47.06,4,263.17,263.17,0,0,0,73.75-10.1,118.11,118.11,0,0,1-16.13-6.6Q277.75,477.41,255.14,442.23Z" fill="#1B1C1D"/>
    <path d="M96.63,347a18.63,18.63,0,0,0-3.39.29q-31.11,2.87-57.91-5.05a162.39,162.39,0,0,1-23.64-9,238.14,238.14,0,0,0,29.9,62.67q15.67-17.62,40.8-32.48a226.45,226.45,0,0,1,31.16-15.78q7.69-3.67,16-6.66-12,2.53-21.35,4.3Q101.62,346.27,96.63,347Z" fill="#1B1C1D"/>
    <path d="M75.28,75.28q-1.78,1.84-3.44,3.62-.86.86-1.66,1.72l-19.63,23q-.52.75-1.15,1.55,23.93,5.8,52.86,21.29a147.47,147.47,0,0,1,51.54,44.42q12.8,17.91,23.82,44.13-1.43-4.19-2.81-8.15-9.87-27-21-51.08l.06-.06a93,93,0,0,0-18-24.91q-4.42-4-5.34-12.22a25.4,25.4,0,0,1,2-13.77q3.21-7.8,9.53-.86,1.49,1.72,8.9,12.86,4.3,6.66,16.93,36h-.06q11.36,26.74,19.51,49.87Q185,151.72,189.2,114.3q1-13.14,2.7-25.71A136.79,136.79,0,0,1,194.71,72q3.67-14.58,8.38-8.84,8.44,9.58,6.77,23.47a240.67,240.67,0,0,1-4.48,25q-.23.75-.57,2.41-.86,7.17-2.18,18.59-2.18,17.91.52,71.22.29,2.58.34,5.11a250.66,250.66,0,0,1,6.83-49.7q21.52-94.87,85.91-112a17,17,0,0,1,6.14-1.49,38.1,38.1,0,0,1,6.37-1.38q1.09,0,2.12-.06a2.09,2.09,0,0,1,1.09-.06,42.11,42.11,0,0,1,9.18-.4q28.35-1,57.79,17.73Q390,68.68,400.68,104.2q9.58,35.7,18,48.84,4.53,8.15,14.46,17.73t12.45,12.45a29.53,29.53,0,0,1,4,7.92,11.77,11.77,0,0,0,.57,2.75,19.3,19.3,0,0,0,.17,3.21,42.78,42.78,0,0,1-1,6.77q-2.24,5.22-5.39,12.34-4.25,6.2-8.09,12.28-20.2,25.83-56.47,44.71-17.56,8.21-47.69,18.54-17.39,5.17-40.23,12.11l-4.94,1.43q6-.46,13.54-.86,5.91-.69,11-.8,19.69-1.49,26.34-.92a13.15,13.15,0,0,1,2.75-.06h1.78a11.89,11.89,0,0,1,2.58.06,251.35,251.35,0,0,1,39.48,3.62q48,8.44,68.29,44a37,37,0,0,1,3.85,8.78,29.62,29.62,0,0,1,1,5.39,5.68,5.68,0,0,1,.06.8,15.23,15.23,0,0,1-.11,2.64q-.57,6.54-5.34,14.58-7.06,9.53-10.73,15.44a62.5,62.5,0,0,0-8.78,20.43q-2.12,6.94-.23,23.07l4.42-4.3a2,2,0,0,1,.4-.4Q511.56,361.83,511.56,256T436.72,75.28Q361.83.44,256,.44T75.28,75.28ZM467.77,269l13,4L477.3,286l.11,13.6-13.49.75-12.8,4.36-4.88-12.63-8.15-10.85,10.62-8.49,7.75-11.19Z" fill="#1B1C1D"/>
</svg>