<svg xmlns="http://www.w3.org/2000/svg" xmlns:xlink="http://www.w3.org/1999/xlink" width="512pt" height="512pt" version="1.1" viewBox="0 0 512 512">
    <polygon points="439.01 301.7 451.01 297.61 463.66 296.91 463.56 284.15 466.79 271.88 454.62 268.17 444.02 261.22 436.75 271.72 426.79 279.68 434.44 289.86 439.01 301.7" fill="#FFFFFF"/>
    <path d="M420.33,452.41q8.5-7.27,16.63-15.45Q512,362,512,256T437,75Q362,0,256,0T75,75a269.92,269.92,0,0,0-30.84,36.55Q0,174.61,0,256a269.23,269.23,0,0,0,7,62.12A239.17,239.17,0,0,0,44.46,400.9,274.23,274.23,0,0,0,75,437q55.17,55.23,127.19,69.81A270.38,270.38,0,0,0,256,512q56.46,0,104.15-21.26A248.85,248.85,0,0,0,420.33,452.41ZM122.4,342a212.39,212.39,0,0,0-29.23,14.8Q69.6,370.71,54.9,387.23a223.35,223.35,0,0,1-28-58.78A152.31,152.31,0,0,0,49,336.85q25.14,7.43,54.31,4.74a17.47,17.47,0,0,1,3.18-.27q4.68-.65,10.82-1.56,8.77-1.67,20-4Q129.61,338.52,122.4,342ZM256,495.69A256.11,256.11,0,0,1,211.86,492Q232,448.05,232,387.66q7.8,19.16,23.15,43Q276.4,463.66,310,480a110.77,110.77,0,0,0,15.13,6.19A246.83,246.83,0,0,1,256,495.69Zm80.53-195.93h-1.67a12.33,12.33,0,0,0-2.58.05q-6.24-.54-24.71.86-4.74.11-10.28.75-7.05.38-12.7.81l4.63-1.35q21.42-6.51,37.73-11.36,28.26-9.69,44.73-17.39,34-17.71,53-41.93,3.61-5.71,7.59-11.52,3-6.67,5.06-11.57a40.12,40.12,0,0,0,.91-6.35,18.1,18.1,0,0,1-.16-3,11,11,0,0,1-.54-2.58,27.7,27.7,0,0,0-3.71-7.43q-2.37-2.69-11.68-11.68t-13.56-16.63q-7.86-12.33-16.85-45.81-10-33.32-20.4-40Q343.68,56,317.09,57a39.5,39.5,0,0,0-8.61.38,2,2,0,0,0-1,.05q-1,.05-2,.05a35.74,35.74,0,0,0-6,1.29,16,16,0,0,0-5.76,1.4q-60.39,16.09-80.58,105.07a235.09,235.09,0,0,0-6.41,46.61q-.05-2.37-.32-4.79-2.53-50-.48-66.8,1.24-10.71,2-17.44.32-1.56.54-2.26a225.72,225.72,0,0,0,4.2-23.41q1.56-13-6.35-22-4.41-5.38-7.86,8.29A128.3,128.3,0,0,0,195.88,99q-1.61,11.79-2.53,24.11-4,35.1-1.72,82.84-7.64-21.69-18.3-46.78h.05q-11.84-27.51-15.88-33.75-6.94-10.44-8.34-12.06-5.92-6.51-8.94.81a23.83,23.83,0,0,0-1.88,12.92q.86,7.7,5,11.46a87.19,87.19,0,0,1,16.85,23.36l-.05.05q10.44,22.55,19.7,47.91,1.29,3.71,2.64,7.64-10.33-24.6-22.34-41.39a138.31,138.31,0,0,0-48.34-41.66q-27.13-14.53-49.57-20,.59-.75,1.08-1.45L81.71,91.51q.75-.81,1.56-1.61,1.56-1.67,3.23-3.39Q156.74,16.31,256,16.31T425.5,86.5q70.19,70.24,70.19,169.5T425.5,425.5a1.89,1.89,0,0,0-.38.38l-4.14,4q-1.78-15.13.22-21.64a58.62,58.62,0,0,1,8.24-19.16q3.45-5.54,10.07-14.48,4.47-7.54,5-13.67a14.29,14.29,0,0,0,.11-2.48,5.33,5.33,0,0,0-.05-.75,27.78,27.78,0,0,0-.91-5.06,34.7,34.7,0,0,0-3.61-8.24Q421,311.12,376,303.21a235.74,235.74,0,0,0-37-3.39A11.15,11.15,0,0,0,336.53,299.76Z" fill="#FFFFFF"/>
</svg>